<svg xmlns="http://www.w3.org/2000/svg" viewBox="0 0 100 100">
  <defs>
    <linearGradient id="g" x1="0" y1="0" x2="0" y2="1">
      <stop offset="0%" stop-color="#ffe27a"/>
      <stop offset="40%" stop-color="#f5b73c"/>
      <stop offset="100%" stop-color="#a05a0e"/>
    </linearGradient>
  </defs>
  <path d="M 82 14 Q 100 42 88 68 Q 76 88 52 88 Q 28 86 14 64" fill="none" stroke="url(#g)" stroke-width="7" stroke-linecap="round" opacity="0.85"/>
  <g fill="url(#g)">
    <ellipse cx="42" cy="32" rx="6" ry="6.5"/>
    <rect x="40" y="36" width="4" height="2"/>
    <path d="M 35 38 Q 31 46 33 54 L 51 54 Q 54 46 50 38 Q 45 35 35 38 Z"/>
    <path d="M 36 52 L 28 66 L 22 80 L 27 82 L 33 76 L 39 64 L 42 54 Z"/>
    <path d="M 46 52 L 54 62 L 60 78 L 56 84 L 50 82 L 48 70 L 44 56 Z"/>
    <path d="M 50 38 Q 58 32 64 24 Q 68 22 70 26 Q 66 32 60 36 Q 54 40 50 40 Z"/>
    <path d="M 36 38 Q 36 44 42 46 Q 50 46 50 42 L 45 38 Z"/>
  </g>
  <g transform="translate(42 26)">
    <path d="M -8 0 L -5 -6 L -2 1 L 0 -8 L 2 1 L 5 -6 L 8 0 L 8 3 L -8 3 Z" fill="url(#g)" stroke="#3a2008" stroke-width="0.6" stroke-linejoin="round"/>
    <rect x="-8" y="3" width="16" height="2.6" rx="0.3" fill="url(#g)" stroke="#3a2008" stroke-width="0.5"/>
    <circle cx="-5" cy="-6" r="1" fill="#fff7d4"/>
    <circle cx="5" cy="-6" r="1" fill="#fff7d4"/>
    <circle cx="0" cy="-8" r="1.5" fill="#e51d1d" stroke="#3a2008" stroke-width="0.4"/>
    <circle cx="0" cy="4.2" r="1.1" fill="#e51d1d"/>
  </g>
  <g transform="translate(67 24) rotate(38)">
    <path d="M -2.8 -32 L 0 -36 L 2.8 -32 L 2.8 -2 L -2.8 -2 Z" fill="url(#g)" stroke="#3a2008" stroke-width="0.5" stroke-linejoin="round"/>
    <line x1="0" y1="-34" x2="0" y2="-4" stroke="#fff4c8" stroke-width="0.8" opacity="0.75"/>
    <rect x="-7" y="-2" width="14" height="3" rx="0.4" fill="url(#g)" stroke="#3a2008" stroke-width="0.5"/>
    <rect x="-1.6" y="1" width="3.2" height="7" fill="#21130a"/>
    <circle cx="0" cy="9.5" r="2" fill="url(#g)" stroke="#3a2008" stroke-width="0.4"/>
    <circle cx="0" cy="9.5" r="0.7" fill="#e51d1d"/>
  </g>
</svg>
